<?xml version="1.0" encoding="UTF-8"?> <svg xmlns="http://www.w3.org/2000/svg" width="1189.202" height="296.281" viewBox="0 0 1189.202 296.281"><g id="scholar-fab-logo-black" transform="translate(0.002 0.001)"><path id="Tracé_1" data-name="Tracé 1" d="M266.2,254.6a10.935,10.935,0,0,1-8.2-3.69l-74.9-84.59a10.945,10.945,0,0,1,3.83-17.29l67.31-29.3a10.95,10.95,0,1,1,8.74,20.08l-53.5,23.29,64.92,73.31a10.945,10.945,0,0,1-8.19,18.2" fill="#935ca1"></path><path id="Tracé_2" data-name="Tracé 2" d="M174.11,130.03a10.935,10.935,0,0,1-10.89-9.89l-7.07-73.07a10.946,10.946,0,1,1,21.79-2.11l5.62,58.08,89.79-39.08a10.948,10.948,0,0,1,8.73,20.08l-103.6,45.1a10.94,10.94,0,0,1-4.37.91" fill="#e63612"></path><path id="Tracé_3" data-name="Tracé 3" d="M130.66,134.36a10.624,10.624,0,0,1-2.37-.26L56.61,118.24a10.944,10.944,0,0,1,4.73-21.37l56.97,12.6L108.89,12a10.946,10.946,0,1,1,21.79-2.11l10.88,112.46a10.946,10.946,0,0,1-10.9,12" fill="#a2c617"></path><path id="Tracé_4" data-name="Tracé 4" d="M84.03,240.14a10.943,10.943,0,0,1-9.42-16.5l29.59-50.29L8.58,152.2a10.944,10.944,0,0,1,4.73-21.37l110.32,24.41a10.95,10.95,0,0,1,7.07,16.24L93.47,234.75a10.932,10.932,0,0,1-9.44,5.4" fill="#00adbc"></path><path id="Tracé_5" data-name="Tracé 5" d="M101.42,296.28A10.943,10.943,0,0,1,92,279.78l57.31-97.38a10.948,10.948,0,0,1,17.63-1.7l48.67,54.96a10.945,10.945,0,0,1-16.39,14.51l-38.68-43.68-49.67,84.39a10.932,10.932,0,0,1-9.44,5.4" fill="#fecc2f"></path><path id="Tracé_6" data-name="Tracé 6" d="M343.42,166.95v-3.27c0-5.44,3.27-7.96,8.71-6.95,11.64,2.09,22.11,2.85,31.49,1.76,9.3-1,15.16-5.03,15.16-11.73a9.836,9.836,0,0,0-3.27-7.29c-2.18-2.09-6.11-4.35-11.81-6.7l-10.72-4.61c-10.47-4.52-17.84-9.38-22.28-14.49a27.058,27.058,0,0,1-6.62-18.43c0-28.23,30.91-35.43,65.66-27.39,4.61,1.09,6.87,4.02,6.87,8.79v3.52c0,5.36-3.27,8.04-8.71,7.12q-39.705-6.66-39.7,7.54c0,5.28,3.68,9.13,14.15,13.4l9.88,4.19c10.97,4.61,18.84,9.55,23.62,14.74s7.12,11.73,7.12,19.6c0,18.85-13.4,28.98-31.83,31.66-12.48,2.01-26.47.84-40.96-2.76-4.52-1.09-6.78-3.94-6.78-8.71" fill="#fff"></path><path id="Tracé_7" data-name="Tracé 7" d="M453.65,135.71c0,16.92,6.62,23.87,22.61,23.87a79.961,79.961,0,0,0,14.24-1.34c5.44-.92,8.71,1.51,8.71,6.95v2.93c0,4.77-2.26,7.71-6.7,8.8a79.834,79.834,0,0,1-20.1,2.43c-13.07,0-23.45-3.68-31.24-11.14-7.79-7.37-11.73-18.18-11.73-32.5s3.94-25.13,11.73-32.58,18.17-11.14,31.24-11.14a83.825,83.825,0,0,1,20.1,2.51c4.44,1.01,6.7,3.94,6.7,8.71v2.93c0,5.36-3.77,7.71-10.22,6.7a91,91,0,0,0-12.73-1.17c-16,0-22.61,7.12-22.61,24.04" fill="#fff"></path><path id="Tracé_8" data-name="Tracé 8" d="M581.29,101.54c8.38,6.7,12.73,18.01,12.73,34.09v34.34c0,5.03-2.85,7.87-7.87,7.87h-8.12c-5.03,0-7.87-2.85-7.87-7.87V135.63c0-8.96-1.76-15.08-5.28-18.51s-9.55-5.11-18.01-5.11c-2.85,0-7.12.17-12.73.59v57.37c0,5.03-2.85,7.87-7.87,7.87h-8.04c-5.03,0-7.96-2.85-7.96-7.87V65.69c0-5.03,2.93-7.96,7.96-7.96h8.04c5.02,0,7.87,2.93,7.87,7.96v26.8c4.1-.34,8.12-.5,11.98-.5,15.49,0,26.72,2.85,35.18,9.55" fill="#fff"></path><path id="Tracé_9" data-name="Tracé 9" d="M646.54,179.35c-13.99,0-24.71-3.77-32.16-11.39-7.45-7.54-11.22-18.26-11.22-32.25,0-28.06,15.49-43.72,43.39-43.72s43.39,15.66,43.39,43.72c0,13.99-3.77,24.71-11.22,32.25-7.45,7.62-18.17,11.39-32.16,11.39m0-20.02c6.53,0,11.39-1.93,14.57-5.7,3.1-3.77,4.69-9.72,4.69-17.92s-1.59-14.24-4.69-18.01c-3.18-3.77-8.04-5.61-14.57-5.61s-11.39,1.84-14.49,5.61-4.69,9.8-4.69,18.01,1.59,14.15,4.69,17.92,7.96,5.7,14.49,5.7" fill="#fff"></path><path id="Tracé_10" data-name="Tracé 10" d="M701.16,65.69c0-5.03,2.85-7.96,7.87-7.96h8.54c5.02,0,7.87,2.93,7.87,7.96V169.97c0,5.02-2.85,7.87-7.87,7.87h-8.54c-5.02,0-7.87-2.85-7.87-7.87Z" fill="#fff"></path><path id="Tracé_11" data-name="Tracé 11" d="M804.1,99.7c7.29,5.19,11.48,14.07,11.48,25.21v28.31c0,8.79-2.09,15.16-6.28,18.93s-10.97,5.7-20.27,5.7H769.52c-11.22,0-19.6-1.93-25.21-5.7s-8.46-10.47-8.46-20.02,3.02-16.75,9.13-20.6c6.03-3.85,13.57-5.19,24.54-5.19h22.2v-1.42c0-9.05-6.62-13.57-19.93-13.57a113.826,113.826,0,0,0-22.11,2.68c-5.44,1.01-8.71-1.51-8.71-6.95V103.9c0-4.86,2.76-7.79,8.29-8.88a126.223,126.223,0,0,1,25.96-3.01c11.81,0,21.52,2.51,28.89,7.7m-20.94,61.06c6.95,0,8.54-2.43,8.54-8.71v-8.71H770.77c-5.03,0-8.38.59-10.05,1.84s-2.51,3.6-2.51,6.95.84,5.44,2.51,6.7c1.59,1.26,4.94,1.93,9.97,1.93h12.48Z" fill="#fff"></path><path id="Tracé_12" data-name="Tracé 12" d="M878.23,100.53v5.02c0,5.19-2.85,7.87-8.63,7.96-18.51.75-18.43,1.17-18.84,8.21v48.24c0,5.03-2.85,7.87-7.87,7.87h-8.46c-5.03,0-7.96-2.85-7.96-7.87V118.28c.17-12.06,2.43-18.09,12.48-21.94,6.7-2.26,16.08-3.35,30.91-3.6,5.44-.08,8.38,2.68,8.38,7.79" fill="#fff"></path><path id="Tracé_13" data-name="Tracé 13" d="M941.88,177.84c-5.03,0-7.96-2.85-7.96-7.87V90.99c0-17.67,7.96-24.62,26.64-24.62h46.4c5.03,0,7.87,2.85,7.87,7.87v4.77c0,5.03-2.85,7.96-7.87,7.96H966.42c-6.62,0-8.29,2.18-8.29,7.12v17.76h42.63c5.03,0,7.87,2.85,7.87,7.87v4.86c0,5.03-2.85,7.87-7.87,7.87H958.13v37.52c0,5.02-2.85,7.87-7.87,7.87h-8.38Z" fill="#fff"></path><path id="Tracé_14" data-name="Tracé 14" d="M1083.08,99.7c7.29,5.19,11.47,14.07,11.47,25.21v28.31c0,8.79-2.09,15.16-6.28,18.93s-10.97,5.7-20.27,5.7h-19.52c-11.22,0-19.6-1.93-25.21-5.7s-8.46-10.47-8.46-20.02,3.02-16.75,9.13-20.6c6.03-3.85,13.57-5.19,24.54-5.19h22.19v-1.42c0-9.05-6.62-13.57-19.93-13.57a113.826,113.826,0,0,0-22.11,2.68c-5.44,1.01-8.71-1.51-8.71-6.95V103.9c0-4.86,2.76-7.79,8.29-8.88a126.223,126.223,0,0,1,25.96-3.01c11.81,0,21.53,2.51,28.9,7.7m-20.94,61.06c6.95,0,8.54-2.43,8.54-8.71v-8.71h-20.94c-5.03,0-8.38.59-10.05,1.84s-2.51,3.6-2.51,6.95.84,5.44,2.51,6.7c1.59,1.26,4.94,1.93,9.97,1.93h12.48Z" fill="#fff"></path><path id="Tracé_15" data-name="Tracé 15" d="M1176.47,101.54c8.38,6.7,12.73,18.01,12.73,34.09s-4.35,27.39-12.73,34.09c-8.38,6.79-19.68,9.63-35.18,9.63-12.56,0-21.69-2.09-27.3-6.28q-8.55-6.285-8.54-20.6V65.69c0-5.03,2.93-7.96,7.96-7.96h8.04c5.03,0,7.87,2.93,7.87,7.96v26.8c4.1-.33,8.12-.5,11.98-.5,15.49,0,26.72,2.85,35.18,9.55m-16.33,52.51c3.43-3.52,5.19-9.63,5.19-18.43s-1.76-14.99-5.19-18.43c-3.52-3.43-9.3-5.19-17.42-5.19a102.261,102.261,0,0,0-13.4,1.01v35.85c0,3.94.42,5.86,2.18,7.79s5.44,2.68,11.39,2.68c7.96,0,13.74-1.76,17.25-5.28" fill="#fff"></path><path id="Tracé_16" data-name="Tracé 16" d="M351.12,247.32c-5.4,0-7.71-2.01-7.71-7.13V217.34a2.089,2.089,0,0,1,2.3-2.28h2.42a2.075,2.075,0,0,1,2.28,2.28v21.6c0,1.36.53,2.08,2.4,2.08h10.64a2.07,2.07,0,0,1,2.28,2.28v1.74a2.07,2.07,0,0,1-2.28,2.28H351.11Z" fill="#fcfdff"></path><path id="Tracé_17" data-name="Tracé 17" d="M388.47,224.7a8.593,8.593,0,0,1,3.32,7.3v8.19c0,2.54-.61,4.39-1.82,5.48s-3.18,1.65-5.87,1.65h-5.65c-3.25,0-5.67-.56-7.3-1.65s-2.45-3.03-2.45-5.79.87-4.85,2.64-5.96c1.74-1.12,3.93-1.5,7.1-1.5h6.42v-.41c0-2.62-1.91-3.93-5.77-3.93a32.956,32.956,0,0,0-6.4.78c-1.58.29-2.52-.44-2.52-2.01v-.92c0-1.41.8-2.25,2.4-2.57a36.643,36.643,0,0,1,7.51-.87,14.265,14.265,0,0,1,8.36,2.23m-6.06,17.67c2.01,0,2.47-.7,2.47-2.52v-2.52h-6.06a5.375,5.375,0,0,0-2.91.53,2.393,2.393,0,0,0-.73,2.01,2.214,2.214,0,0,0,.73,1.94,5.139,5.139,0,0,0,2.89.56h3.61Z" fill="#fcfdff"></path><path id="Tracé_18" data-name="Tracé 18" d="M411.79,247.32a2.085,2.085,0,0,1-2.3-2.28V222.18c0-5.11,2.3-7.13,7.71-7.13h13.43a2.075,2.075,0,0,1,2.28,2.28v1.38a2.085,2.085,0,0,1-2.28,2.3H418.9c-1.91,0-2.4.63-2.4,2.06v5.14h12.34a2.07,2.07,0,0,1,2.28,2.28v1.41a2.07,2.07,0,0,1-2.28,2.28H416.5v10.86a2.07,2.07,0,0,1-2.28,2.28H411.8Z" fill="#fcfdff"></path><path id="Tracé_19" data-name="Tracé 19" d="M454.64,224.7a8.593,8.593,0,0,1,3.32,7.3v8.19c0,2.54-.61,4.39-1.82,5.48s-3.17,1.65-5.87,1.65h-5.65c-3.25,0-5.67-.56-7.29-1.65s-2.45-3.03-2.45-5.79.87-4.85,2.64-5.96c1.74-1.12,3.93-1.5,7.1-1.5h6.42v-.41c0-2.62-1.91-3.93-5.77-3.93a32.956,32.956,0,0,0-6.4.78c-1.58.29-2.52-.44-2.52-2.01v-.92c0-1.41.8-2.25,2.4-2.57a36.643,36.643,0,0,1,7.51-.87,14.265,14.265,0,0,1,8.36,2.23m-6.06,17.67c2.01,0,2.47-.7,2.47-2.52v-2.52h-6.06a5.352,5.352,0,0,0-2.91.53,2.393,2.393,0,0,0-.73,2.01,2.214,2.214,0,0,0,.73,1.94,5.122,5.122,0,0,0,2.88.56h3.61Z" fill="#fcfdff"></path><path id="Tracé_20" data-name="Tracé 20" d="M483.65,225.24c2.42,1.94,3.68,5.21,3.68,9.86s-1.26,7.92-3.68,9.86c-2.42,1.96-5.7,2.79-10.18,2.79-3.64,0-6.28-.61-7.9-1.82q-2.475-1.815-2.47-5.96V214.86a2.1,2.1,0,0,1,2.3-2.3h2.33a2.085,2.085,0,0,1,2.28,2.3v7.76c1.19-.1,2.35-.15,3.47-.15,4.48,0,7.73.82,10.18,2.76m-4.73,15.2c.99-1.02,1.5-2.79,1.5-5.33s-.51-4.34-1.5-5.33c-1.02-.99-2.69-1.5-5.04-1.5a30.376,30.376,0,0,0-3.88.29v10.37a2.872,2.872,0,0,0,.63,2.25c.51.56,1.58.78,3.3.78,2.3,0,3.97-.51,4.99-1.53" fill="#fcfdff"></path><path id="Tracé_21" data-name="Tracé 21" d="M506.92,224.94v1.45c0,1.5-.82,2.28-2.5,2.3-5.36.22-5.33.34-5.45,2.38v13.96a2.075,2.075,0,0,1-2.28,2.28h-2.45a2.085,2.085,0,0,1-2.3-2.28V230.08c.05-3.49.7-5.23,3.61-6.35,1.94-.65,4.65-.97,8.94-1.04,1.58-.02,2.42.77,2.42,2.25" fill="#fcfdff"></path><path id="Tracé_22" data-name="Tracé 22" d="M510.78,215.93a3.84,3.84,0,1,1,7.68.02c0,2.44-1.31,3.78-3.85,3.78s-3.83-1.38-3.83-3.8m2.59,31.39a2.07,2.07,0,0,1-2.28-2.28V225.21a2.089,2.089,0,0,1,2.28-2.3h2.47a2.089,2.089,0,0,1,2.28,2.3v19.83a2.07,2.07,0,0,1-2.28,2.28Z" fill="#fcfdff"></path><path id="Tracé_23" data-name="Tracé 23" d="M545.1,224.29c1.62,1.24,2.45,3.22,2.45,5.99v24.67a2.085,2.085,0,0,1-2.28,2.3h-2.33a2.085,2.085,0,0,1-2.28-2.3v-7.34c-1.19.1-2.35.14-3.47.14-4.48,0-7.73-.82-10.15-2.76-2.45-1.94-3.71-5.19-3.71-9.86s1.26-7.93,3.71-9.89c2.42-1.94,5.67-2.76,10.15-2.76,3.64,0,6.28.61,7.9,1.82m-4.44,17.4V231.62a3.738,3.738,0,0,0-.7-2.62c-.48-.46-1.55-.7-3.22-.7-2.33,0-4,.51-4.99,1.53s-1.5,2.79-1.5,5.31.51,4.31,1.53,5.31c.99,1.02,2.67,1.53,5.02,1.53a36.874,36.874,0,0,0,3.88-.27" fill="#fcfdff"></path><path id="Tracé_24" data-name="Tracé 24" d="M570.21,225.21a2.1,2.1,0,0,1,2.3-2.3h2.33a2.089,2.089,0,0,1,2.28,2.3v11.05c0,4.36-1.04,7.37-3.22,9.09-2.18,1.74-4.95,2.4-8.99,2.4s-6.81-.66-8.97-2.4c-2.16-1.72-3.25-4.73-3.25-9.09V225.21a2.1,2.1,0,0,1,2.3-2.3h2.33a2.089,2.089,0,0,1,2.28,2.3v11.15c0,2.11.41,3.59,1.24,4.39.8.8,2.18,1.21,4.1,1.21s3.27-.41,4.07-1.21,1.21-2.28,1.21-4.39V225.21Z" fill="#fcfdff"></path><path id="Tracé_25" data-name="Tracé 25" d="M604.19,235.8a8.113,8.113,0,0,1-4.63,1.55l-10.49,1.09c.87,2.69,3.03,3.78,6.45,3.78a24.624,24.624,0,0,0,5.7-.8c1.62-.36,2.57.32,2.57,1.94v.75a2.4,2.4,0,0,1-1.94,2.55,29.136,29.136,0,0,1-7.54,1.09q-5.85,0-9.19-3.2-3.375-3.2-3.37-9.43c0-8.14,4.34-12.65,12.6-12.65,7.08,0,11.15,3.35,11.15,9.48a4.967,4.967,0,0,1-1.31,3.85m-6.93-3.22c1.43-.12,1.72-.41,1.72-1.26,0-2.42-1.55-3.64-4.63-3.64-3.56,0-5.28,1.67-5.65,5.77l8.56-.87Z" fill="#fcfdff"></path><path id="Tracé_26" data-name="Tracé 26" d="M638.39,214.86a2.085,2.085,0,0,1,2.28-2.3H643a2.089,2.089,0,0,1,2.28,2.3v25.11c0,2.76-.8,4.75-2.42,5.96s-4.27,1.82-7.93,1.82c-4.48,0-7.76-.82-10.18-2.79-2.42-1.94-3.68-5.21-3.68-9.87s1.26-7.92,3.71-9.86c2.42-1.94,5.67-2.76,10.16-2.76,1.11,0,2.28.05,3.47.14v-7.76Zm-.63,26.32a2.885,2.885,0,0,0,.63-2.25V228.56a30.9,30.9,0,0,0-3.88-.29c-2.35,0-4.05.51-5.04,1.5s-1.5,2.79-1.5,5.33.51,4.32,1.5,5.33,2.67,1.53,4.99,1.53c1.72,0,2.79-.22,3.3-.78" fill="#fcfdff"></path><path id="Tracé_27" data-name="Tracé 27" d="M672.34,235.8a8.113,8.113,0,0,1-4.63,1.55l-10.49,1.09c.87,2.69,3.03,3.78,6.45,3.78a24.624,24.624,0,0,0,5.7-.8c1.62-.36,2.57.32,2.57,1.94v.75a2.4,2.4,0,0,1-1.94,2.55,29.136,29.136,0,0,1-7.54,1.09q-5.85,0-9.19-3.2-3.375-3.2-3.37-9.43c0-8.14,4.34-12.65,12.6-12.65,7.08,0,11.15,3.35,11.15,9.48a4.967,4.967,0,0,1-1.31,3.85m-6.93-3.22c1.43-.12,1.72-.41,1.72-1.26,0-2.42-1.55-3.64-4.63-3.64-3.56,0-5.28,1.67-5.65,5.77l8.56-.87Z" fill="#fcfdff"></path><path id="Tracé_28" data-name="Tracé 28" d="M677.58,244.19v-.7c0-1.58.92-2.33,2.54-2.04a36.136,36.136,0,0,0,8.02.8c2.3-.07,3.71-.75,3.71-2.08,0-1.07-.73-1.65-2.45-2.11l-5.21-1.33c-4.63-1.19-6.96-3.52-6.93-7.03,0-3.37,2.23-5.7,5.62-6.59a25.077,25.077,0,0,1,12.09.29,2.352,2.352,0,0,1,1.96,2.54v.61c0,1.62-.95,2.33-2.57,1.96-3.39-.75-6.64-1.04-8.85-.48-1.11.27-1.67.77-1.67,1.48,0,.82.58,1.38,1.77,1.65l5.57,1.45c4.87,1.26,7.22,3.61,7.22,7.39,0,7.66-10.03,9.11-18.9,6.74a2.416,2.416,0,0,1-1.94-2.55" fill="#fcfdff"></path><path id="Tracé_29" data-name="Tracé 29" d="M713.67,244.16v-.95c0-1.58.95-2.3,2.52-2.01a31.534,31.534,0,0,0,9.11.51c2.69-.29,4.39-1.45,4.39-3.39a2.856,2.856,0,0,0-.95-2.11,11.378,11.378,0,0,0-3.42-1.94l-3.1-1.33a17.975,17.975,0,0,1-6.45-4.19,7.814,7.814,0,0,1-1.92-5.33c0-8.17,8.94-10.25,19-7.92a2.353,2.353,0,0,1,1.99,2.54v1.02a1.92,1.92,0,0,1-2.52,2.06q-11.49-1.92-11.49,2.18c0,1.53,1.07,2.64,4.1,3.88l2.86,1.21a19.707,19.707,0,0,1,6.84,4.26,8.045,8.045,0,0,1,2.06,5.67c0,5.45-3.88,8.39-9.21,9.16a30.052,30.052,0,0,1-11.85-.8,2.332,2.332,0,0,1-1.96-2.52" fill="#fcfdff"></path><path id="Tracé_30" data-name="Tracé 30" d="M760.08,224.7a8.593,8.593,0,0,1,3.32,7.3v8.19c0,2.54-.61,4.39-1.82,5.48s-3.17,1.65-5.87,1.65h-5.65c-3.25,0-5.67-.56-7.29-1.65s-2.45-3.03-2.45-5.79.87-4.85,2.64-5.96c1.74-1.12,3.93-1.5,7.1-1.5h6.42v-.41q0-3.93-5.77-3.93a32.956,32.956,0,0,0-6.4.78c-1.58.29-2.52-.44-2.52-2.01v-.92c0-1.41.8-2.25,2.4-2.57a36.643,36.643,0,0,1,7.51-.87,14.265,14.265,0,0,1,8.36,2.23M754,242.39c2.01,0,2.47-.7,2.47-2.52v-2.52h-6.06a5.352,5.352,0,0,0-2.91.53,2.393,2.393,0,0,0-.73,2.01,2.214,2.214,0,0,0,.73,1.94,5.122,5.122,0,0,0,2.88.56h3.61Z" fill="#fcfdff"></path><path id="Tracé_31" data-name="Tracé 31" d="M786.43,224.82a2.4,2.4,0,0,1,2.54-1.92h2.52c1.65,0,2.4,1.04,1.89,2.62l-4.97,15.05c-.9,2.76-1.91,4.65-3.05,5.65a7.538,7.538,0,0,1-5.16,1.53,7.636,7.636,0,0,1-5.14-1.5c-1.16-.99-2.18-2.89-3.08-5.67l-4.95-15.05c-.51-1.58.24-2.62,1.89-2.62h2.5a2.428,2.428,0,0,1,2.57,1.92l4.22,14.28c.61,1.94,1.09,2.35,1.99,2.35s1.38-.41,1.99-2.35l4.24-14.28Z" fill="#fcfdff"></path><path id="Tracé_32" data-name="Tracé 32" d="M808.99,247.75c-4.05,0-7.15-1.09-9.31-3.3-2.16-2.18-3.25-5.28-3.25-9.33,0-8.12,4.48-12.65,12.55-12.65s12.55,4.53,12.55,12.65c0,4.05-1.09,7.15-3.25,9.33-2.16,2.21-5.26,3.3-9.31,3.3m0-5.79a5.226,5.226,0,0,0,4.22-1.65c.9-1.09,1.36-2.81,1.36-5.19s-.46-4.12-1.36-5.21a5.212,5.212,0,0,0-4.22-1.62,5.107,5.107,0,0,0-4.19,1.62c-.9,1.09-1.36,2.84-1.36,5.21s.46,4.1,1.36,5.19a5.134,5.134,0,0,0,4.19,1.65" fill="#fcfdff"></path><path id="Tracé_33" data-name="Tracé 33" d="M826.47,215.93a3.84,3.84,0,1,1,7.68.02c0,2.44-1.31,3.78-3.85,3.78s-3.83-1.38-3.83-3.8m2.59,31.39a2.07,2.07,0,0,1-2.28-2.28V225.21a2.089,2.089,0,0,1,2.28-2.3h2.47a2.089,2.089,0,0,1,2.28,2.3v19.83a2.07,2.07,0,0,1-2.28,2.28Z" fill="#fcfdff"></path><path id="Tracé_34" data-name="Tracé 34" d="M854.51,224.94v1.45c0,1.5-.82,2.28-2.5,2.3-5.36.22-5.33.34-5.45,2.38v13.96a2.075,2.075,0,0,1-2.28,2.28h-2.45a2.085,2.085,0,0,1-2.3-2.28V230.08c.05-3.49.7-5.23,3.61-6.35,1.94-.65,4.65-.97,8.94-1.04a2.085,2.085,0,0,1,2.42,2.25" fill="#fcfdff"></path><path id="Tracé_35" data-name="Tracé 35" d="M857.59,244.19v-.7c0-1.58.92-2.33,2.54-2.04a36.136,36.136,0,0,0,8.02.8c2.3-.07,3.71-.75,3.71-2.08,0-1.07-.73-1.65-2.45-2.11l-5.21-1.33c-4.63-1.19-6.96-3.52-6.93-7.03,0-3.37,2.23-5.7,5.62-6.59a25.077,25.077,0,0,1,12.09.29,2.352,2.352,0,0,1,1.96,2.54v.61c0,1.62-.95,2.33-2.57,1.96-3.39-.75-6.64-1.04-8.85-.48-1.11.27-1.67.77-1.67,1.48,0,.82.58,1.38,1.77,1.65l5.57,1.45c4.87,1.26,7.22,3.61,7.22,7.39,0,7.66-10.03,9.11-18.91,6.74a2.425,2.425,0,0,1-1.94-2.55" fill="#fcfdff"></path></g></svg> 