<?xml version="1.0" encoding="utf-8"?>
<!-- Generator: Adobe Illustrator 28.0.0, SVG Export Plug-In . SVG Version: 6.00 Build 0)  -->
<svg version="1.1" id="Composant_1_1" xmlns="http://www.w3.org/2000/svg" xmlns:xlink="http://www.w3.org/1999/xlink" x="0px"
	 y="0px" viewBox="0 0 403.4 299.2" style="enable-background:new 0 0 403.4 299.2;" xml:space="preserve">
<style type="text/css">
	.st0{fill:#263542;}
</style>
<path class="st0" d="M208.6,3c-3.2,0.1-6.4,0.2-9.5,0.2c-7,1-15,2-22,3c-0.4,0-0.8,0-1.2,0.1l1.3,13.3L91.9,0.7
	c-8.8-1.9-17.5,3.7-19.5,12.5c-1.9,8.8,3.7,17.5,12.5,19.5l107.4,23.7c1.1,0.3,2.3,0.4,3.5,0.4c0.5,0,1-0.1,1.6-0.1
	c9-0.9,15.6-8.9,14.7-17.9L208.6,3L208.6,3z"/>
<path class="st0" d="M197.6,107.7c1.9-8.9-3.7-17.6-12.5-19.6L19.9,51.5C11.1,49.6,2.4,55.2,0.4,64c-1.9,8.8,3.7,17.5,12.5,19.5
	l143.2,31.7l-17.3,29.4c12.4,0.5,24.8,1,37.2,1.4l19.7-33.5C196.6,111,197.2,109.4,197.6,107.7L197.6,107.7z"/>
<path class="st0" d="M313.8,149.3l0.5,0.6c11.6,0.4,23.2,0.8,34.8,1.4c3.5,0.2,7,0.3,10.6,0.5l-2.1-2.3
	C343,149.4,328.4,149.4,313.8,149.3L313.8,149.3z"/>
<path class="st0" d="M402.2,43.8c-3.4-8.4-13-12.4-21.4-9L280,78.7c-1.6,0.7-3,1.7-4.3,2.8c-6.8,6-7.4,16.3-1.4,23.1l39.5,44.6
	c14.6,0.1,29.3,0.2,43.9,0.2l-43.9-49.6l80.1-34.9C401.9,61.2,405.5,51.9,402.2,43.8L402.2,43.8z"/>
<path class="st0" d="M274.9,10l-0.7-7.6c-11,0-21.9,0-32.9,0.1l3.2,33c0.8,8.4,7.9,14.8,16.3,14.8c2.3,0,4.5-0.4,6.6-1.2L380.3,0
	c-29.3,1.9-58.5,2.3-87.8,2.4L274.9,10z"/>
<path class="st0" d="M211.3,149.7c19.6-0.6,39.3-0.8,59-0.7l-0.3-0.4c-19.1-0.4-38.1-0.8-57.2-1.4L211.3,149.7L211.3,149.7z"/>
<path class="st0" d="M246.1,122.9c-7.8-4.6-17.8-2-22.4,5.8l-10.9,18.5c19.1,0.6,38.1,1,57.2,1.4l-19.9-22.4
	C248.9,124.9,247.6,123.8,246.1,122.9L246.1,122.9z"/>
</svg>
